<svg width="18" height="21" viewBox="0 0 18 21" fill="none" xmlns="http://www.w3.org/2000/svg">
<g clip-path="url(#clip0_207_18)">
<path d="M3.25667 16.7784C3.63535 16.2875 4.22026 16 4.84023 16H13.1598C13.7797 16 14.3647 16.2875 14.7433 16.7784L16.7574 19.3892C17.2645 20.0466 16.7959 21 15.9656 21H2.0344C1.20409 21 0.735463 20.0466 1.24262 19.3892L3.25667 16.7784Z" fill="url(#paint0_linear_207_18)"/>
<g filter="url(#filter0_bi_207_18)">
<path d="M16 7.41177C16 12.7059 10.5 18 9 18C7.5 18 2 12.7059 2 7.41177C2 3.31836 5.13401 0 9 0C12.866 0 16 3.31836 16 7.41177Z" fill="#F1F1F1" fill-opacity="0.1"/>
<path d="M16 7.41177C16 12.7059 10.5 18 9 18C7.5 18 2 12.7059 2 7.41177C2 3.31836 5.13401 0 9 0C12.866 0 16 3.31836 16 7.41177Z" fill="url(#paint1_linear_207_18)" fill-opacity="0.2"/>
<path d="M15.9 7.41177C15.9 10.0268 14.5399 12.6523 12.9839 14.6293C12.2069 15.6166 11.3841 16.4382 10.6642 17.0119C10.3042 17.2988 9.97162 17.5224 9.68478 17.6737C9.39506 17.8266 9.1627 17.9 9 17.9C8.8373 17.9 8.60494 17.8266 8.31522 17.6737C8.02838 17.5224 7.69578 17.2988 7.33576 17.0119C6.61591 16.4382 5.79313 15.6166 5.01608 14.6293C3.46006 12.6523 2.1 10.0268 2.1 7.41177C2.1 3.36813 5.19454 0.1 9 0.1C12.8055 0.1 15.9 3.36813 15.9 7.41177Z" stroke="url(#paint2_linear_207_18)" stroke-opacity="0.1" stroke-width="0.2"/>
</g>
<g filter="url(#filter1_i_207_18)">
<circle cx="9" cy="7" r="3" fill="url(#paint3_linear_207_18)"/>
</g>
</g>
<defs>
<filter id="filter0_bi_207_18" x="-1" y="-3" width="20" height="24" filterUnits="userSpaceOnUse" color-interpolation-filters="sRGB">
<feFlood flood-opacity="0" result="BackgroundImageFix"/>
<feGaussianBlur in="BackgroundImageFix" stdDeviation="1.5"/>
<feComposite in2="SourceAlpha" operator="in" result="effect1_backgroundBlur_207_18"/>
<feBlend mode="normal" in="SourceGraphic" in2="effect1_backgroundBlur_207_18" result="shape"/>
<feColorMatrix in="SourceAlpha" type="matrix" values="0 0 0 0 0 0 0 0 0 0 0 0 0 0 0 0 0 0 127 0" result="hardAlpha"/>
<feOffset dy="0.5"/>
<feGaussianBlur stdDeviation="1"/>
<feComposite in2="hardAlpha" operator="arithmetic" k2="-1" k3="1"/>
<feColorMatrix type="matrix" values="0 0 0 0 1 0 0 0 0 1 0 0 0 0 1 0 0 0 0.15 0"/>
<feBlend mode="normal" in2="shape" result="effect2_innerShadow_207_18"/>
</filter>
<filter id="filter1_i_207_18" x="6" y="4" width="6" height="6.5" filterUnits="userSpaceOnUse" color-interpolation-filters="sRGB">
<feFlood flood-opacity="0" result="BackgroundImageFix"/>
<feBlend mode="normal" in="SourceGraphic" in2="BackgroundImageFix" result="shape"/>
<feColorMatrix in="SourceAlpha" type="matrix" values="0 0 0 0 0 0 0 0 0 0 0 0 0 0 0 0 0 0 127 0" result="hardAlpha"/>
<feOffset dy="0.5"/>
<feGaussianBlur stdDeviation="0.25"/>
<feComposite in2="hardAlpha" operator="arithmetic" k2="-1" k3="1"/>
<feColorMatrix type="matrix" values="0 0 0 0 1 0 0 0 0 1 0 0 0 0 1 0 0 0 0.1 0"/>
<feBlend mode="normal" in2="shape" result="effect1_innerShadow_207_18"/>
</filter>
<linearGradient id="paint0_linear_207_18" x1="0" y1="16" x2="2.51433" y2="25.0516" gradientUnits="userSpaceOnUse">
<stop stop-color="#BAF2B5"/>
<stop offset="1" stop-color="#26AAD4"/>
</linearGradient>
<linearGradient id="paint1_linear_207_18" x1="2" y1="0" x2="19.01" y2="13.23" gradientUnits="userSpaceOnUse">
<stop stop-color="#BAF2B5"/>
<stop offset="1" stop-color="#26AAD4"/>
</linearGradient>
<linearGradient id="paint2_linear_207_18" x1="2.4375" y1="0.818182" x2="16" y2="0.818182" gradientUnits="userSpaceOnUse">
<stop stop-color="#7EE5FF"/>
<stop offset="1" stop-color="#41A9FF"/>
</linearGradient>
<linearGradient id="paint3_linear_207_18" x1="6" y1="4" x2="11.85" y2="9.85" gradientUnits="userSpaceOnUse">
<stop stop-color="#BAF2B5"/>
<stop offset="1" stop-color="#26AAD4"/>
</linearGradient>
<clipPath id="clip0_207_18">
<rect width="18" height="21" fill="white"/>
</clipPath>
</defs>
</svg>
